<svg width="288" height="86" viewBox="0 0 288 86" fill="none" xmlns="http://www.w3.org/2000/svg">
<mask id="mask0_397_104" style="mask-type:luminance" maskUnits="userSpaceOnUse" x="16" y="11" width="233" height="64">
<path d="M248.554 11.1484H16V74.8521H248.554V11.1484Z" fill="white"/>
</mask>
<g mask="url(#mask0_397_104)">
<path d="M33.7602 62.2739C30.1458 64.3554 26.661 66.6121 23.741 69.6237C22.7954 70.5999 21.949 71.6574 21.4434 72.9458C21.3938 73.0732 21.3554 73.2006 21.2706 73.4507C21.2706 72.8933 21.2594 72.4537 21.2706 72.0142C21.2866 71.5587 21.3122 71.1 21.3538 70.6509C21.605 68.0709 22.1602 65.5626 23.213 63.1816C24.365 60.5746 26.0194 58.3641 28.4034 56.7396C28.4467 56.7055 28.4873 56.6683 28.525 56.6281C29.221 56.2093 29.9154 55.7841 30.6098 55.3716C31.8578 54.6358 33.1058 53.9096 34.3554 53.1786C35.1954 52.7533 35.9954 52.2581 36.8194 51.8042C41.4066 49.2624 45.997 46.7079 50.4802 43.9798C52.4082 42.806 54.3522 41.6546 56.1378 40.2626C56.2365 40.1908 56.3169 40.0969 56.3725 39.9884C56.4281 39.88 56.4573 39.7601 56.4578 39.6383C56.6098 37.2718 56.1346 35.031 55.1106 32.8985C55.157 32.8666 55.2002 32.8348 55.2482 32.8061C56.4226 32.1118 57.637 31.4811 58.7778 30.7294L60.9474 29.4505C61.2946 30.258 61.077 31.1116 61.1826 31.9987V30.9205C61.3906 31.2597 61.3874 31.634 61.4194 31.9955C61.7778 35.926 61.4354 39.7673 59.8354 43.4271C58.485 46.5008 56.325 48.8738 53.4834 50.6814C48.8594 53.6197 44.1202 56.3654 39.3474 59.0552C39.2418 59.1142 39.1442 59.1922 39.0434 59.2623C37.2555 60.2188 35.4938 61.223 33.7602 62.2739ZM115.005 38.5888C115.005 37.6938 115.015 36.9198 115 36.1458C114.995 35.9037 115.045 35.7954 115.317 35.8145C115.706 35.8368 116.096 35.8368 116.485 35.8145C116.76 35.7986 116.803 35.9101 116.802 36.1458C116.797 42.5034 116.797 48.8595 116.802 55.2155C116.802 55.4655 116.754 55.5627 116.482 55.5484C116.093 55.5243 115.703 55.5243 115.314 55.5484C115.045 55.5643 114.997 55.4655 114.999 55.2203C115.011 54.037 115.005 52.8537 115.005 51.5748C114.765 51.8583 114.589 52.0781 114.403 52.2883C111.296 55.792 107.386 56.9546 102.963 55.6248C98.6242 54.3189 96.0066 51.2229 95.3266 46.7302C94.3506 40.2961 98.5874 36.0311 102.346 34.687C106.357 33.2505 111.343 34.042 114.581 38.0696C114.698 38.2162 114.818 38.3611 115.005 38.5904V38.5888ZM114.981 45.1726C114.981 44.4432 115.085 43.7871 114.965 43.1787C114 38.3324 108.775 34.3589 102.859 36.5774C99.4722 37.8483 96.4162 41.5845 97.2226 46.6792C97.9634 51.3662 103.079 55.7745 109.239 53.6388C111.083 52.9986 112.498 51.7739 113.607 50.1956C114.679 48.6572 115.224 46.9691 114.981 45.1726ZM241.027 38.6032C241.027 37.6986 241.039 36.915 241.023 36.1346C241.018 35.8766 241.096 35.8018 241.355 35.8113C241.757 35.8321 242.162 35.8273 242.563 35.8113C242.768 35.805 242.842 35.8814 242.821 36.0757C242.815 36.1442 242.821 36.2143 242.821 36.2828C242.821 42.556 242.824 48.8292 242.831 55.1008C242.831 55.4703 242.738 55.5882 242.375 55.5468C241.938 55.4958 241.351 55.7283 241.103 55.4512C240.887 55.2123 241.037 54.639 241.035 54.2122C241.029 53.3697 241.029 52.5272 241.026 51.6847C241.026 51.6783 241.003 51.672 240.959 51.6481C238.615 54.6979 235.523 56.2507 231.624 56.0978C228.802 55.9863 226.439 54.8651 224.434 52.8999C220.144 48.6986 220.229 41.6514 224.152 37.5345C226.512 35.0565 229.378 33.87 232.8 34.0468C236.224 34.2235 238.906 35.8209 241.027 38.6032ZM241.015 45.085C240.994 44.4448 241.101 43.7918 240.984 43.15C240.223 38.979 235.631 34.5803 229.53 36.3465C225.319 37.5648 222.677 41.7024 223.171 46.1409C223.802 51.8026 229.443 55.4783 234.895 53.7646C236.813 53.1626 238.323 51.9762 239.496 50.3724C240.643 48.8005 241.261 47.0662 241.01 45.085H241.015ZM213.946 38.5856C213.946 37.7145 213.962 36.9612 213.939 36.2047C213.93 35.9021 213.999 35.7747 214.325 35.8098C214.791 35.8575 215.416 35.6139 215.682 35.9053C215.912 36.1601 215.755 36.7717 215.755 37.2256C215.755 43.1803 215.759 49.135 215.765 55.0881C215.765 55.4353 215.711 55.5929 215.32 55.5484C214.974 55.5155 214.626 55.5155 214.28 55.5484C213.989 55.5691 213.939 55.4496 213.941 55.1932C213.952 54.0211 213.946 52.8473 213.946 51.5764L213.437 52.1912C209.749 56.6297 203.234 57.4356 198.659 54.0274C191.856 48.9566 192.85 38.4965 200.73 34.9243C202.949 33.9326 205.442 33.7225 207.798 34.3286C210.153 34.9347 212.231 36.321 213.69 38.2592L213.946 38.5856ZM213.93 45.0914C213.92 44.4209 214.048 43.7297 213.903 43.0688C212.775 37.9502 207.234 34.2984 201.523 36.6873C197.679 38.2958 195.578 42.247 196.146 46.4817C196.813 51.4665 202.259 55.8923 208.434 53.5337C210.186 52.8648 211.533 51.6656 212.587 50.1415C213.64 48.6174 214.168 46.9563 213.93 45.0914ZM149.813 51.5939C145.543 57.3241 137.96 57.176 133.752 53.3952C128.859 48.9996 129.08 41.6944 132.987 37.4804C137.467 32.6532 145.867 32.83 149.767 38.4503C149.895 38.3786 149.837 38.2544 149.839 38.1572C149.845 37.5075 149.855 36.8577 149.839 36.2079C149.829 35.9149 149.885 35.7779 150.219 35.8066C150.579 35.8352 150.943 35.8352 151.304 35.8066C151.592 35.7875 151.677 35.9005 151.637 36.1601C151.637 42.4625 151.641 48.765 151.648 55.0674C151.648 55.4831 151.53 55.5866 151.143 55.5452C150.824 55.5165 150.503 55.5165 150.184 55.5452C149.903 55.5675 149.835 55.4623 149.84 55.198C149.855 54.1628 149.847 53.1228 149.845 52.0876C149.84 51.9571 149.827 51.8249 149.813 51.5939ZM149.826 45.0739C149.803 44.3636 149.928 43.6389 149.767 42.9302C148.811 38.764 144.408 34.7921 138.647 36.2589C134.253 37.3801 131.459 41.6275 132.008 46.2524C132.691 52.0112 138.717 55.6662 144.146 53.6118C145.944 52.9317 147.346 51.7484 148.434 50.1925C149.507 48.6588 150.064 46.9722 149.826 45.0739ZM33.6034 37.2351C34.1234 36.7191 34.701 36.2636 35.3218 35.8735C39.2434 33.3062 43.285 30.9205 47.3698 28.6112C47.4191 28.587 47.4699 28.5657 47.5218 28.5475C47.6498 28.6479 47.7362 28.7148 47.6946 28.9393C47.6258 29.3072 47.6562 29.6958 47.661 30.0748C47.6882 32.3905 47.6098 34.7061 47.7026 37.0217C46.3458 37.7989 44.9858 38.5729 43.6338 39.3581C40.2322 41.3329 36.8402 43.3236 33.613 45.5755L33.6034 37.2351ZM175.368 36.8274C176.568 35.6967 177.879 34.9832 179.418 34.7459C184.419 33.9767 187.831 37.001 188.535 40.836C188.632 41.3791 188.679 41.9317 188.675 42.4843C188.675 46.6999 188.679 50.9139 188.685 55.1295C188.685 55.4894 188.579 55.577 188.245 55.5436C187.926 55.5136 187.605 55.5136 187.287 55.5436C186.947 55.5786 186.882 55.448 186.883 55.1343C186.893 50.9458 186.906 46.7604 186.883 42.5719C186.869 39.9282 185.573 38.041 183.199 36.9469C180.419 35.6648 177.063 36.8226 175.563 39.4791C175.437 39.708 175.373 39.9663 175.379 40.2276C175.384 45.1726 175.379 50.1208 175.391 55.069C175.391 55.4401 175.307 55.5898 174.919 55.5436C174.482 55.4926 173.907 55.7219 173.639 55.4528C173.387 55.2043 173.571 54.6406 173.57 54.2153C173.57 44.0992 173.567 33.9831 173.56 23.8669C173.56 23.4847 173.656 23.3589 174.034 23.4003C174.325 23.4337 174.618 23.4337 174.907 23.4003C175.314 23.3493 175.379 23.5245 175.376 23.8844C175.359 25.5694 175.367 27.2559 175.367 28.9425V36.8258L175.368 36.8274Z" fill="#021D38"/>
<path d="M47.701 37.0287C47.6066 34.713 47.685 32.3958 47.6578 30.0802C47.653 29.7028 47.6242 29.3158 47.693 28.9463C47.7346 28.7249 47.6482 28.6548 47.5186 28.5561C48.2978 28.0592 49.1026 27.6037 49.9266 27.1896C50.109 27.0845 50.2834 26.9651 50.4498 26.8345C52.2307 25.8697 53.9895 24.8651 55.725 23.8213L58.6242 22.1045C58.7714 22.2383 58.7074 22.4166 58.7074 22.5727C58.7122 25.1336 58.7074 27.6961 58.7138 30.257C58.7138 30.4162 58.6546 30.5898 58.7874 30.73C57.6466 31.4833 56.4322 32.1139 55.2578 32.8067C55.2098 32.8354 55.1666 32.8688 55.1202 32.8991C54.7698 33.0902 54.4162 33.2797 54.069 33.474L47.701 37.0287ZM76.1634 37.0494C76.5298 36.7436 76.8306 36.4824 77.1394 36.234C80.8338 33.3052 87.5538 34.2512 89.3538 39.881C89.6146 40.7123 89.7442 41.5803 89.7378 42.4499C89.7378 46.6925 89.741 50.9336 89.7458 55.1747C89.7458 55.4502 89.7042 55.5728 89.3922 55.5489C89.0312 55.518 88.6683 55.518 88.3074 55.5489C87.973 55.5776 87.9234 55.439 87.925 55.1476C87.941 53.641 87.933 52.136 87.933 50.6294C87.933 47.9634 87.941 45.2974 87.933 42.6298C87.9202 39.6405 86.0194 37.2071 83.1762 36.5907C80.1586 35.9378 77.5762 37.4858 76.2386 40.0944C76.1506 40.2616 76.1666 40.4432 76.1666 40.62C76.1666 45.4423 76.1682 50.2647 76.173 55.0871C76.173 55.4279 76.125 55.5935 75.733 55.5442C75.4145 55.5076 75.093 55.5076 74.7746 55.5442C74.4258 55.5824 74.3778 55.4343 74.3778 55.1301C74.3858 48.8282 74.3858 42.5295 74.3778 36.2292C74.3778 35.8852 74.461 35.7658 74.8146 35.8008C75.1186 35.8358 75.4274 35.8358 75.7314 35.8008C76.125 35.753 76.213 35.917 76.1746 36.2626C76.1586 36.5254 76.1538 36.7882 76.1634 37.0494Z" fill="#021D38"/>
<path d="M58.7878 30.7265C58.6566 30.5863 58.7142 30.4111 58.7142 30.2535C58.711 27.691 58.7142 25.1301 58.7094 22.5692C58.7094 22.4115 58.7734 22.2364 58.6262 22.101C59.7334 21.3222 60.879 20.5992 61.9542 19.7758C63.791 18.3807 65.543 16.9028 66.943 15.0554C67.4742 14.353 67.927 13.6045 68.2198 12.6426C68.2715 14.5295 68.1034 16.416 67.719 18.2644C67.1862 20.9081 66.287 23.4085 64.751 25.6572C63.7328 27.1431 62.4452 28.4269 60.9542 29.4428L58.7878 30.7265ZM162.708 56.0455C159.783 56.0455 157.253 53.8477 156.909 51.0129C156.869 50.688 156.914 50.5033 157.285 50.4491C157.642 50.3998 157.993 50.309 158.33 50.1816C158.701 50.0398 158.674 50.2644 158.693 50.4937C158.821 52.0258 159.581 53.1693 160.954 53.8334C162.313 54.4895 163.687 54.402 164.941 53.526C166.226 52.6278 166.794 51.3665 166.685 49.8073C166.602 48.6368 166.055 47.7067 165.154 46.9741C164.313 46.2954 163.421 45.6825 162.485 45.141C161.658 44.6585 160.826 44.1823 160.105 43.5484C158.602 42.2361 158.101 40.5751 158.609 38.6831C159.109 36.8229 160.361 35.6412 162.279 35.2542C164.717 34.7621 167.044 36.2894 167.517 38.6592C167.535 38.742 167.537 38.8248 167.554 38.9044C167.649 39.3074 167.513 39.5447 167.09 39.653C166.745 39.7405 166.369 40.0607 166.097 39.9778C165.826 39.8966 165.908 39.3742 165.802 39.0541C165.391 37.8135 164.549 37.1 163.389 37.0363C162.074 36.9631 160.98 37.6017 160.463 38.7468C159.962 39.8552 160.199 41.1978 161.082 42.0339C161.769 42.6837 162.567 43.1965 163.381 43.6663C164.485 44.3097 165.597 44.9404 166.541 45.8067C168.308 47.428 168.877 49.4538 168.277 51.728C167.711 53.8939 166.266 55.2986 164.069 55.8974C163.868 55.9507 163.662 55.988 163.455 56.0089C163.209 56.0359 162.959 56.036 162.708 56.0455ZM122.769 39.473C122.769 34.2652 122.767 29.0542 122.761 23.8465C122.761 23.477 122.852 23.3703 123.213 23.4037C123.588 23.4244 123.964 23.4244 124.338 23.4037C124.517 23.4037 124.594 23.4627 124.575 23.6426C124.575 34.1166 124.579 44.5905 124.586 55.0645C124.586 55.4785 124.474 55.59 124.081 55.547C123.777 55.5152 123.468 55.5152 123.164 55.547C122.825 55.5821 122.761 55.4515 122.762 55.1393C122.772 50.524 122.775 45.9087 122.769 41.2933V39.473ZM55.727 23.8178C53.9916 24.8617 52.2328 25.8663 50.4518 26.831C48.2662 24.767 45.7974 23.0932 43.1926 21.6105C41.7043 20.7547 40.1643 19.9915 38.5814 19.3251C38.5078 19.2932 38.4406 19.2502 38.2822 19.1642C39.1785 19.1232 40.0765 19.1429 40.9702 19.2232C44.4166 19.4716 47.767 20.1851 50.991 21.4432C52.6406 22.0898 54.2438 22.8368 55.727 23.8178ZM33.6006 37.2402L33.6118 45.5806L33.0262 46.1189C32.9865 46.131 32.9488 46.1487 32.9142 46.1714C31.2214 47.6478 29.8374 49.3487 29.0038 51.4588C28.5318 52.6485 28.2998 53.8875 28.2198 55.16C27.7014 51.5018 27.8854 47.8914 29.023 44.3622C29.8278 41.8714 31.127 39.6593 32.9958 37.8008C33.1878 37.5985 33.399 37.4249 33.6006 37.2402Z" fill="#021D38"/>
<path d="M28.2197 55.1583C28.3029 53.8859 28.5317 52.6484 29.0037 51.4556C29.8373 49.3486 31.2213 47.6477 32.9141 46.1697C32.9488 46.1471 32.9865 46.1294 33.0261 46.1172C32.8757 48.5825 33.2901 50.9427 34.3685 53.1771C33.1173 53.9081 31.8693 54.636 30.6245 55.3701C29.9237 55.7858 29.2293 56.2079 28.5365 56.6283C28.3653 56.1505 28.3301 55.6457 28.2197 55.1583ZM40.2981 60.4011C42.5088 62.1825 44.8873 63.7468 47.4005 65.0722C47.6437 65.1996 47.8805 65.343 48.1189 65.4783V66.7954C46.6581 66.7476 45.2277 66.4817 43.8021 66.1934C42.5541 65.9434 41.3221 65.6105 40.1173 65.1964V60.7945C40.1157 60.6416 40.0597 60.4505 40.2981 60.4011Z" fill="#021D38"/>
<path d="M40.296 60.3983C40.056 60.4492 40.112 60.6403 40.112 60.7948V65.1967C37.8804 64.4865 35.7458 63.5038 33.7568 62.2711C35.4933 61.2193 37.2565 60.2119 39.0448 59.25L40.296 60.3983ZM75 63.3764C75 62.4368 75.0096 61.4971 74.9936 60.5575C74.9888 60.2979 75.072 60.2342 75.328 60.2326C75.584 60.2326 75.6608 60.2963 75.6512 60.5559C75.632 61.2439 75.6512 61.9351 75.64 62.6263C75.6368 62.8381 75.688 62.913 75.9152 62.9082C76.7899 62.8955 77.6646 62.8955 78.5392 62.9082C78.7744 62.9082 78.8512 62.8445 78.8448 62.6088C78.832 61.9192 78.856 61.228 78.8336 60.5384C78.824 60.2438 78.9664 60.2454 79.1856 60.2358C79.4288 60.2263 79.4832 60.3123 79.4816 60.54C79.4733 62.4458 79.4733 64.3516 79.4816 66.2574C79.4816 66.5011 79.4384 66.5919 79.168 66.5982C78.8768 66.5982 78.8304 66.4883 78.8352 66.2351C78.8496 65.4468 78.8272 64.6569 78.8464 63.8733C78.8528 63.5946 78.7632 63.5277 78.496 63.5325C77.648 63.5484 76.8 63.5484 75.9536 63.5325C75.6864 63.5261 75.6336 63.6153 75.6384 63.8637C75.6544 64.6505 75.6384 65.442 75.6464 66.2256C75.6464 66.4485 75.6608 66.6141 75.3344 66.603C75.0496 66.5934 74.9936 66.4995 75 66.2399C75.008 65.2843 75 64.3288 75 63.3764ZM158.84 64.2937C158.256 64.2937 157.672 64.3097 157.088 64.2858C156.787 64.2746 156.744 64.3813 156.784 64.6457C156.837 64.9883 156.99 65.308 157.223 65.5656C157.456 65.8233 157.759 66.0078 158.096 66.0966C158.805 66.2717 159.579 65.9771 160.045 65.3735C160.149 65.2397 160.171 64.9594 160.498 65.1314C160.758 65.2716 160.758 65.3815 160.618 65.5997C160.058 66.4501 159.254 66.7909 158.264 66.6986C157.222 66.5982 156.573 65.9883 156.253 65.0279C155.859 63.8478 156.411 62.5005 157.475 61.9909C158 61.7427 158.597 61.6908 159.157 61.8446C159.718 61.9984 160.204 62.3477 160.526 62.8286C160.768 63.1949 160.872 63.6041 160.926 64.0357C160.952 64.2476 160.864 64.2985 160.675 64.2953C160.062 64.289 159.451 64.2937 158.84 64.2937ZM158.549 63.757C159.021 63.757 159.493 63.7475 159.963 63.7618C160.232 63.7714 160.266 63.6838 160.178 63.4481C159.938 62.8015 159.261 62.346 158.522 62.3524C157.784 62.3572 157.114 62.8317 156.899 63.4943C156.834 63.6933 156.874 63.765 157.093 63.7618C157.579 63.7507 158.069 63.7618 158.549 63.7618V63.757ZM87.7696 64.2937C87.1856 64.2937 86.6016 64.3033 86.0176 64.289C85.7568 64.2842 85.6464 64.3192 85.7056 64.6314C85.8464 65.3735 86.336 65.9373 87.0416 66.1061C87.7456 66.2749 88.5168 65.9676 88.9824 65.3528C89.0816 65.2222 89.1072 64.9658 89.4064 65.1299C89.6448 65.2573 89.6976 65.3464 89.544 65.5917C88.8288 66.7224 87.2176 67.076 86.1072 66.3243C84.9712 65.5567 84.7056 63.8478 85.5456 62.7171C86.1616 61.8873 87.1616 61.5656 88.1744 61.8698C88.6336 62.0155 89.0379 62.2955 89.3348 62.6733C89.6316 63.0512 89.8071 63.5093 89.8384 63.988C89.8544 64.2205 89.808 64.3065 89.5584 64.2985C88.9664 64.2826 88.368 64.2937 87.7696 64.2937ZM87.4576 63.7586C87.9424 63.7586 88.4288 63.7507 88.9136 63.7586C89.1648 63.765 89.1888 63.6854 89.1072 63.4656C88.9776 63.1368 88.7511 62.8547 88.4574 62.6564C88.1637 62.4581 87.8166 62.3529 87.4618 62.3547C87.1069 62.3564 86.7609 62.4649 86.4691 62.6661C86.1774 62.8672 85.9536 63.1515 85.8272 63.4815C85.7424 63.7109 85.8112 63.7682 86.04 63.7618C86.512 63.7491 86.984 63.7618 87.4576 63.7618V63.7586ZM99.36 65.8752C98.1152 66.9502 96.8096 66.9773 95.84 65.9644C95.3934 65.5015 95.1421 64.8858 95.1379 64.244C95.1337 63.6023 95.377 62.9834 95.8176 62.5148C96.8176 61.4669 98.0432 61.5003 99.4048 62.6534C99.4048 62.4877 99.4112 62.3556 99.4048 62.2266C99.3936 62.0195 99.3888 61.8746 99.6928 61.8666C100.021 61.8603 100 62.0259 100 62.2457C99.9952 63.5707 99.9952 64.8941 100 66.2192C100 66.4421 100.011 66.6014 99.688 66.595C99.3632 66.5903 99.408 66.4246 99.4064 66.2287C99.4096 66.1141 99.4448 65.9899 99.36 65.8752ZM99.4432 64.2699C99.4432 63.1837 98.672 62.3587 97.6352 62.3444C96.616 62.3285 95.7632 63.1757 95.752 64.2141C95.7392 65.2541 96.5728 66.1252 97.584 66.1364C98.64 66.1459 99.44 65.3401 99.4432 64.2699ZM143.029 62.6773C143.029 62.4846 143.037 62.3619 143.029 62.2425C143.01 62.01 143.029 61.8682 143.346 61.8698C143.662 61.873 143.624 62.0418 143.622 62.2361V66.2112C143.622 66.423 143.664 66.6014 143.322 66.5998C142.965 66.5998 143.042 66.3912 143.037 66.1969V65.7987C142.464 66.4199 141.834 66.7447 141.059 66.7065C140.269 66.6667 139.659 66.2924 139.211 65.6602C138.466 64.6091 138.67 63.1471 139.67 62.2998C140.656 61.4621 141.862 61.58 143.029 62.6773ZM143.072 64.2539C143.072 63.1757 142.278 62.354 141.243 62.3444C140.21 62.3364 139.379 63.1885 139.379 64.2316C139.379 65.2764 140.214 66.1348 141.23 66.1364C142.278 66.138 143.075 65.3226 143.072 64.2539ZM119.818 62.6789C120.43 62.0147 121.04 61.65 121.851 61.7918C122.554 61.9144 123.019 62.3333 123.155 63.0181C123.382 64.1377 123.238 65.2764 123.261 66.4055C123.267 66.7001 123.011 66.5266 122.882 66.56C122.678 66.611 122.667 66.4772 122.667 66.3179C122.67 65.5853 122.669 64.8527 122.662 64.1217C122.659 63.8736 122.642 63.6258 122.611 63.3796C122.504 62.5483 121.854 62.1342 121.05 62.3651C120.365 62.5626 119.885 63.1662 119.854 63.9434C119.822 64.7206 119.818 65.4898 119.834 66.2622C119.838 66.5393 119.733 66.5727 119.499 66.5759C119.266 66.5791 119.198 66.5043 119.2 66.2701C119.21 64.3113 119.21 62.3492 119.2 60.3887C119.2 60.1705 119.237 60.0702 119.49 60.0702C119.744 60.0734 119.83 60.1259 119.826 60.3919C119.805 61.1149 119.818 61.8411 119.818 62.6789ZM226.048 64.2874C226.018 65.6936 224.963 66.7288 223.587 66.7081C222.213 66.689 221.162 65.5774 221.195 64.1727C221.198 63.8475 221.266 63.5262 221.396 63.2276C221.525 62.929 221.714 62.6593 221.949 62.4343C222.185 62.2093 222.464 62.0336 222.769 61.9175C223.074 61.8014 223.4 61.7473 223.726 61.7583C225.05 61.8013 226.074 62.9209 226.048 64.2874ZM225.451 64.2667C225.451 63.2044 224.632 62.3476 223.624 62.3556C222.614 62.3651 221.83 63.1949 221.824 64.2476C221.818 65.2987 222.61 66.122 223.629 66.1268C224.648 66.1332 225.448 65.3098 225.451 64.2667ZM186.614 64.246C186.619 65.6315 185.56 66.7097 184.195 66.7081C183.872 66.7092 183.553 66.6463 183.254 66.5232C182.956 66.4 182.686 66.2191 182.458 65.9908C182.231 65.7625 182.052 65.4916 181.931 65.1937C181.81 64.8957 181.75 64.5768 181.754 64.2555C181.748 63.9305 181.807 63.6076 181.927 63.3055C182.048 63.0034 182.228 62.7281 182.456 62.4958C182.684 62.2634 182.957 62.0786 183.258 61.952C183.558 61.8254 183.881 61.7595 184.208 61.7583C185.531 61.736 186.608 62.8509 186.614 64.246ZM186.014 64.2332C186.006 63.1964 185.189 62.354 184.195 62.354C183.179 62.354 182.381 63.2092 182.389 64.281C182.398 65.3273 183.203 66.138 184.226 66.1284C185.246 66.1173 186.024 65.2843 186.014 64.2332ZM174.592 66.7479C173.725 66.7543 173.182 66.267 172.771 65.5742C172.621 65.3257 172.874 65.313 172.982 65.2238C173.104 65.1251 173.222 65.0454 173.339 65.2652C173.44 65.4452 173.566 65.6108 173.717 65.7541C174.2 66.2399 174.874 66.2526 175.354 65.8051C175.789 65.3974 175.795 64.8129 175.354 64.2874C175.087 63.9871 174.791 63.7149 174.469 63.4751C174.166 63.2331 173.858 62.9974 173.579 62.7266C172.958 62.1294 172.901 61.1977 173.424 60.5942C173.947 59.9922 174.931 59.9061 175.61 60.4237C175.762 60.5416 175.886 60.6945 176.027 60.8251C176.24 61.0257 176.266 61.1818 175.974 61.357C175.808 61.4573 175.712 61.5131 175.584 61.3204C175.494 61.1973 175.387 61.0874 175.266 60.9939C174.869 60.6626 174.307 60.6626 173.976 60.9827C173.645 61.3029 173.635 61.8507 174.019 62.2457C174.286 62.5212 174.603 62.7489 174.912 62.9862C175.262 63.2586 175.618 63.5277 175.898 63.8733C176.346 64.4291 176.523 65.0534 176.21 65.7223C175.894 66.3912 175.347 66.7416 174.592 66.7479ZM232.147 62.6773C232.594 62.2074 232.995 61.8889 233.541 61.795C234.55 61.6214 235.378 62.1852 235.53 63.1933C235.691 64.2507 235.578 65.3162 235.613 66.3784C235.621 66.6747 235.398 66.5504 235.259 66.5743C235.054 66.611 235.01 66.5106 235.01 66.3195C235.01 65.4627 235.021 64.6059 234.981 63.7507C234.933 62.7457 234.563 62.3333 233.792 62.3221C233 62.3094 232.29 62.956 232.2 63.7809C232.109 64.6043 232.134 65.4356 232.146 66.2638C232.146 66.5234 232.075 66.5871 231.821 66.5855C231.566 66.5855 231.533 66.4867 231.534 66.2701C231.542 64.9164 231.542 63.5627 231.534 62.209C231.534 62.0084 231.539 61.873 231.81 61.8857C232.03 61.8985 232.198 61.9001 232.154 62.1883C232.142 62.351 232.14 62.5143 232.147 62.6773ZM133.434 62.8445C133.174 63.1057 132.984 63.163 132.67 62.8509C131.906 62.0896 130.566 62.166 129.821 62.9512C129.136 63.6694 129.152 64.8623 129.862 65.5774C130.598 66.3163 131.904 66.3243 132.699 65.6044C132.802 65.5137 132.837 65.2827 133.074 65.3815C133.438 65.5344 133.467 65.6427 133.197 65.9293C132.398 66.7798 130.886 66.955 129.859 66.3163C129.37 66.0165 129.003 65.5545 128.823 65.0117C128.643 64.4689 128.661 63.8802 128.874 63.3493C129.314 62.225 130.506 61.5768 131.736 61.7822C132.454 61.9049 133.053 62.2027 133.434 62.8445ZM201.618 63.5293C201.618 63.0595 201.627 62.5897 201.618 62.1167C201.61 61.8348 201.802 61.9033 201.957 61.8969C202.11 61.8889 202.258 61.8746 202.25 62.1167C202.216 63.0961 202.31 64.0787 202.178 65.0566C202.038 66.087 201.344 66.697 200.283 66.7177C199.131 66.7368 198.416 66.1937 198.243 65.1346C198.077 64.1201 198.198 63.0945 198.16 62.0737C198.152 61.8029 198.358 61.9144 198.485 61.8953C198.658 61.8698 198.765 61.9001 198.76 62.1278C198.747 62.8317 198.755 63.5389 198.76 64.2412C198.762 64.4482 198.774 64.6553 198.8 64.8607C198.91 65.692 199.462 66.1587 200.264 66.1189C201.083 66.0774 201.562 65.5869 201.598 64.7301C201.613 64.332 201.598 63.929 201.598 63.5293H201.618ZM242.158 66.7193C241.754 66.7053 241.365 66.5599 241.051 66.3052C240.851 66.1443 240.813 66.0121 241.016 65.8067C241.158 65.6634 241.226 65.6395 241.373 65.7892C241.614 66.0313 241.914 66.1746 242.272 66.1348C242.44 66.124 242.6 66.0613 242.73 65.9553C242.861 65.8494 242.954 65.7055 242.998 65.5439C243.106 65.2111 242.958 64.9419 242.683 64.7588C242.384 64.5597 242.059 64.3989 241.757 64.2077C241.382 63.9704 241.082 63.679 241.037 63.2012C240.987 62.6566 241.157 62.2043 241.656 61.9494C242.256 61.6373 242.803 61.8141 243.325 62.1804C243.584 62.3603 243.562 62.4861 243.352 62.6789C243.218 62.8063 243.144 62.7473 243.043 62.6597C242.868 62.5013 242.651 62.3953 242.418 62.354C242.083 62.3014 241.806 62.4177 241.645 62.7171C241.482 63.0149 241.586 63.2793 241.819 63.4974C242.178 63.8287 242.654 63.9848 243.04 64.281C243.79 64.8623 243.8 65.8768 243.053 66.4406C242.798 66.6379 242.481 66.7369 242.158 66.7193ZM208.456 64.4785C208.456 63.9529 208.43 63.4274 208.466 62.905C208.491 62.5132 208.39 62.3333 207.974 62.4113C207.734 62.4575 207.632 62.381 207.642 62.1087C207.651 61.8157 207.843 61.8857 207.984 61.9017C208.358 61.9494 208.506 61.822 208.464 61.435C208.43 61.1213 208.47 60.7996 208.453 60.4827C208.44 60.2502 208.478 60.1323 208.76 60.1403C209.01 60.1466 209.101 60.2008 209.085 60.4651C209.059 60.8362 209.094 61.2137 209.072 61.5816C209.056 61.8443 209.149 61.9319 209.402 61.9001C209.538 61.8842 209.678 61.9064 209.818 61.8937C210.042 61.873 210.016 62.0179 210.019 62.1581C210.022 62.2982 210.027 62.4224 209.811 62.4193C209.581 62.4193 209.272 62.3078 209.134 62.4686C208.976 62.6597 209.085 62.9719 209.082 63.2315C209.075 64.238 209.072 65.2461 209.082 66.2542C209.082 66.4931 209.043 66.5982 208.77 66.5966C208.496 66.5966 208.445 66.5059 208.451 66.259C208.467 65.6666 208.456 65.0725 208.456 64.4785ZM112.373 64.5103C112.373 63.929 112.357 63.3477 112.379 62.7712C112.392 62.4782 112.296 62.389 112.008 62.4017C111.867 62.4081 111.629 62.5546 111.57 62.2664C111.515 61.9988 111.594 61.8364 111.909 61.8953C112.293 61.9686 112.414 61.8029 112.379 61.4287C112.347 61.0879 112.389 60.7391 112.368 60.3951C112.352 60.1339 112.504 60.1466 112.68 60.1466C112.856 60.1466 113.005 60.1339 112.992 60.3951C112.971 60.7948 112.997 61.1961 112.982 61.5959C112.973 61.8252 113.045 61.9272 113.286 61.8985C113.422 61.8826 113.565 61.9096 113.702 61.8921C113.938 61.865 113.931 62.0036 113.934 62.1692C113.936 62.3349 113.91 62.4081 113.714 62.4193C112.987 62.4639 112.989 62.475 112.989 63.1964C112.989 64.2173 112.981 65.2381 112.994 66.259C112.994 66.509 112.942 66.5919 112.677 66.5966C112.394 66.5966 112.365 66.4772 112.37 66.2463C112.382 65.6729 112.373 65.0916 112.373 64.5103ZM106.242 63.3509C106.242 64.3192 106.235 65.2859 106.248 66.2574C106.248 66.4963 106.211 66.5982 105.936 66.5998C105.661 66.5998 105.624 66.4899 105.626 66.2542C105.632 64.3065 105.632 62.3571 105.626 60.4094C105.626 60.1705 105.666 60.0734 105.939 60.0718C106.211 60.0702 106.25 60.1785 106.248 60.4126C106.235 61.3889 106.242 62.3715 106.242 63.3509ZM192.613 63.3541C192.613 64.3208 192.606 65.2875 192.618 66.2542C192.618 66.4931 192.578 66.5919 192.304 66.595C192.016 66.595 192.002 66.4692 192.003 66.2447C192.01 64.2969 192.01 62.3492 192.003 60.403C192.003 60.1626 192.045 60.0702 192.317 60.0654C192.605 60.0654 192.621 60.188 192.618 60.4126C192.606 61.392 192.613 62.3731 192.613 63.3541ZM149.725 62.5196C150.029 62.2074 150.248 61.9335 150.594 61.8252C150.779 61.7679 150.966 61.7201 151.162 61.7997C151.269 61.8427 151.474 61.8555 151.421 61.9797C151.352 62.139 151.322 62.4001 151.043 62.3938C150.429 62.3826 150.186 62.5467 149.942 63.1041C149.739 63.5755 149.763 64.0756 149.742 64.5693C149.718 65.149 149.718 65.7319 149.738 66.3052C149.747 66.5759 149.611 66.5696 149.413 66.5807C149.163 66.5966 149.12 66.4979 149.122 66.2717C149.131 64.9212 149.131 63.5707 149.122 62.2202C149.122 61.9924 149.142 61.8794 149.426 61.881C149.71 61.881 149.762 61.9924 149.726 62.2218C149.715 62.2871 149.725 62.3556 149.725 62.5196ZM215.798 64.273C215.798 64.9499 215.787 65.6267 215.805 66.3036C215.811 66.5632 215.698 66.595 215.483 66.5903C215.29 66.5871 215.186 66.5632 215.187 66.3227C215.2 64.9419 215.2 63.5596 215.187 62.1756C215.187 61.9192 215.294 61.8969 215.507 61.8889C215.757 61.8794 215.808 61.9717 215.805 62.1995C215.792 62.8907 215.798 63.5819 215.798 64.273ZM48.1184 66.7941V65.477L51.24 66.9263C50.1248 66.9295 49.12 66.9231 48.12 66.7957L48.1184 66.7941ZM215.51 60.9525C215.206 60.9206 215.016 60.7677 215.016 60.454C215.014 60.1403 215.208 59.9683 215.512 59.9651C215.816 59.9635 215.979 60.161 215.99 60.4365C216.005 60.7391 215.816 60.9111 215.51 60.9525Z" fill="#021D38"/>
</g>
</svg>
